<svg xmlns="http://www.w3.org/2000/svg" version="1.1" id="Layer_1" x="0" y="0" viewBox="0 0 340 64" enable-background="new 0 0 340 64" xml:space="preserve"><g id="logo-piano"><path fill="#333333" d="M33.2 32.93c0 2.439-0.321 4.692-0.961 6.758 -0.642 2.067-1.582 3.844-2.821 5.332 -1.24 1.488-2.759 2.646-4.558 3.472 -1.797 0.827-3.854 1.24-6.168 1.24 -1.861 0-3.504-0.248-4.93-0.744s-2.49-0.971-3.193-1.426v12.896H4.804V17.74c1.364-0.33 3.068-0.691 5.115-1.085 2.046-0.393 4.412-0.589 7.099-0.589 2.479 0 4.712 0.393 6.696 1.178 1.984 0.786 3.678 1.902 5.084 3.348 1.404 1.447 2.49 3.214 3.255 5.301C32.817 27.98 33.2 30.326 33.2 32.93zM27.186 32.93c0-3.761-0.93-6.654-2.79-8.68 -1.859-2.025-4.34-3.038-7.439-3.038 -1.736 0-3.091 0.062-4.062 0.186 -0.972 0.124-1.747 0.269-2.325 0.434v20.336c0.703 0.579 1.715 1.137 3.039 1.674 1.322 0.538 2.768 0.806 4.34 0.806 1.652 0 3.068-0.299 4.246-0.899 1.178-0.599 2.14-1.426 2.883-2.48 0.744-1.054 1.281-2.294 1.613-3.72C27.021 36.123 27.186 34.583 27.186 32.93z"/><path fill="#333333" d="M40.453 10.92c-1.034 0-1.912-0.341-2.636-1.023 -0.723-0.682-1.084-1.602-1.084-2.759 0-1.157 0.361-2.077 1.084-2.759 0.724-0.682 1.602-1.023 2.636-1.023 1.032 0 1.911 0.341 2.635 1.023s1.085 1.602 1.085 2.759c0 1.158-0.361 2.077-1.085 2.759C42.364 10.579 41.485 10.92 40.453 10.92zM43.367 48.988h-5.767v-32.24h5.767V48.988z"/><path fill="#333333" d="M59.982 15.942c2.314 0 4.268 0.3 5.858 0.899 1.592 0.6 2.873 1.447 3.845 2.542 0.971 1.096 1.663 2.397 2.077 3.906 0.412 1.51 0.619 3.173 0.619 4.991v20.15c-0.496 0.083-1.188 0.197-2.076 0.341 -0.89 0.145-1.891 0.279-3.008 0.403 -1.115 0.124-2.324 0.237-3.627 0.341 -1.301 0.103-2.594 0.155-3.875 0.155 -1.818 0-3.492-0.186-5.021-0.558s-2.852-0.961-3.968-1.767 -1.984-1.87-2.604-3.193c-0.619-1.322-0.93-2.914-0.93-4.774 0-1.777 0.361-3.307 1.085-4.588 0.723-1.28 1.705-2.314 2.944-3.1 1.24-0.785 2.688-1.364 4.341-1.736 1.652-0.372 3.389-0.558 5.208-0.558 0.578 0 1.178 0.031 1.798 0.093s1.209 0.146 1.767 0.248c0.559 0.104 1.044 0.197 1.457 0.279 0.413 0.083 0.703 0.146 0.868 0.186V28.59c0-0.95-0.104-1.891-0.31-2.821 -0.207-0.93-0.58-1.756-1.116-2.48 -0.538-0.723-1.271-1.302-2.201-1.736 -0.93-0.434-2.139-0.651-3.627-0.651 -1.901 0-3.565 0.135-4.991 0.403 -1.426 0.27-2.49 0.548-3.193 0.837l-0.682-4.774c0.744-0.33 1.984-0.651 3.721-0.961S57.957 15.942 59.982 15.942zM60.479 44.834c1.364 0 2.573-0.031 3.627-0.093s1.932-0.175 2.635-0.341v-9.61c-0.413-0.206-1.085-0.381-2.015-0.527 -0.93-0.144-2.057-0.217-3.379-0.217 -0.868 0-1.789 0.062-2.76 0.186s-1.859 0.382-2.666 0.775c-0.806 0.393-1.478 0.93-2.015 1.612 -0.538 0.682-0.806 1.581-0.806 2.697 0 2.067 0.66 3.503 1.984 4.309C56.407 44.431 58.204 44.834 60.479 44.834z"/><path fill="#333333" d="M78.21 17.678c1.322-0.33 3.078-0.682 5.27-1.054 2.191-0.372 4.713-0.558 7.564-0.558 2.562 0 4.691 0.362 6.387 1.085 1.693 0.724 3.047 1.736 4.061 3.038 1.012 1.302 1.725 2.862 2.139 4.681 0.412 1.819 0.62 3.824 0.62 6.014v18.104h-5.767V32.124c0-1.984-0.135-3.679-0.402-5.084 -0.27-1.404-0.713-2.542-1.333-3.41 -0.62-0.868-1.447-1.498-2.479-1.891 -1.034-0.392-2.316-0.589-3.845-0.589 -0.62 0-1.261 0.021-1.922 0.062 -0.661 0.042-1.292 0.093-1.892 0.155s-1.137 0.135-1.611 0.217c-0.476 0.083-0.816 0.145-1.023 0.186v27.218H78.21V17.678z"/><path fill="#333333" d="M138.535 32.868c0 2.563-0.372 4.878-1.116 6.944 -0.744 2.067-1.788 3.844-3.131 5.332 -1.344 1.488-2.945 2.635-4.805 3.441 -1.86 0.806-3.886 1.209-6.076 1.209 -2.191 0-4.216-0.403-6.076-1.209 -1.859-0.806-3.463-1.953-4.805-3.441 -1.344-1.488-2.387-3.265-3.131-5.332 -0.744-2.066-1.116-4.381-1.116-6.944 0-2.521 0.372-4.825 1.116-6.913 0.744-2.086 1.787-3.875 3.131-5.363 1.342-1.488 2.945-2.635 4.805-3.441 1.86-0.806 3.885-1.209 6.076-1.209 2.19 0 4.216 0.403 6.076 1.209 1.859 0.806 3.461 1.953 4.805 3.441 1.343 1.488 2.387 3.276 3.131 5.363C138.163 28.042 138.535 30.347 138.535 32.868zM132.521 32.868c0-3.637-0.816-6.52-2.448-8.649 -1.634-2.128-3.854-3.193-6.665-3.193 -2.812 0-5.033 1.064-6.665 3.193 -1.634 2.129-2.449 5.012-2.449 8.649 0 3.638 0.815 6.521 2.449 8.649 1.632 2.129 3.854 3.193 6.665 3.193 2.811 0 5.031-1.064 6.665-3.193C131.704 39.389 132.521 36.505 132.521 32.868z"/></g><g id="logo-lounge"><path fill="#A60000" d="M171.644 40.68v8.308h-28.707V6.022h9.672V40.68H171.644z"/><path fill="#A60000" d="M204.007 32.62c0 2.563-0.373 4.909-1.117 7.037 -0.744 2.129-1.818 3.948-3.224 5.456 -1.405 1.509-3.091 2.677-5.053 3.503 -1.964 0.826-4.165 1.24-6.603 1.24 -2.398 0-4.579-0.414-6.541-1.24 -1.965-0.826-3.648-1.994-5.054-3.503 -1.405-1.508-2.501-3.327-3.286-5.456 -0.785-2.128-1.178-4.474-1.178-7.037 0-2.562 0.402-4.898 1.209-7.006s1.922-3.906 3.348-5.394c1.426-1.488 3.121-2.645 5.084-3.472 1.963-0.826 4.102-1.24 6.418-1.24 2.355 0 4.515 0.414 6.479 1.24 1.963 0.828 3.646 1.984 5.053 3.472 1.404 1.488 2.5 3.286 3.286 5.394C203.612 27.722 204.007 30.058 204.007 32.62zM194.582 32.62c0-2.852-0.568-5.094-1.705-6.727 -1.138-1.632-2.759-2.449-4.866-2.449 -2.108 0-3.742 0.816-4.898 2.449 -1.158 1.633-1.736 3.875-1.736 6.727s0.578 5.115 1.736 6.789c1.156 1.674 2.79 2.511 4.898 2.511 2.107 0 3.729-0.837 4.866-2.511C194.014 37.735 194.582 35.472 194.582 32.62z"/><path fill="#A60000" d="M235.253 47.872c-1.57 0.456-3.596 0.879-6.076 1.271 -2.479 0.393-5.084 0.589-7.811 0.589 -2.77 0-5.074-0.372-6.914-1.116s-3.297-1.787-4.371-3.131c-1.074-1.343-1.84-2.945-2.293-4.805 -0.455-1.86-0.682-3.906-0.682-6.138V16.376h9.236v17.05c0 2.976 0.393 5.125 1.18 6.448 0.783 1.323 2.252 1.984 4.4 1.984 0.662 0 1.365-0.031 2.109-0.093s1.404-0.133 1.984-0.217V16.376h9.236V47.872z"/><path fill="#A60000" d="M240.213 17.492c1.57-0.454 3.596-0.877 6.076-1.271 2.48-0.392 5.084-0.589 7.812-0.589 2.77 0 5.074 0.362 6.913 1.085 1.839 0.724 3.296 1.747 4.371 3.069 1.074 1.323 1.839 2.894 2.294 4.712 0.455 1.819 0.683 3.844 0.683 6.076v18.414h-9.238V31.69c0-2.976-0.394-5.084-1.178-6.324 -0.786-1.24-2.254-1.86-4.402-1.86 -0.661 0-1.364 0.031-2.108 0.093 -0.743 0.062-1.405 0.135-1.983 0.217v25.172h-9.238V17.492z"/><path fill="#A60000" d="M301.159 44.896c0 5.332-1.354 9.289-4.062 11.873 -2.707 2.582-6.893 3.875-12.555 3.875 -1.984 0-3.968-0.177-5.952-0.527 -1.984-0.352-3.823-0.816-5.518-1.395l1.611-7.75c1.446 0.578 2.966 1.032 4.558 1.363 1.591 0.33 3.399 0.496 5.425 0.496 2.645 0 4.516-0.579 5.611-1.736 1.095-1.157 1.643-2.644 1.643-4.463v-1.178c-0.992 0.456-2.015 0.796-3.069 1.023 -1.054 0.228-2.2 0.341-3.44 0.341 -4.506 0-7.958-1.333-10.354-3.999 -2.397-2.666-3.596-6.396-3.596-11.191 0-2.397 0.372-4.578 1.116-6.541 0.744-1.963 1.829-3.647 3.255-5.053 1.426-1.405 3.172-2.49 5.239-3.255 2.066-0.764 4.401-1.147 7.006-1.147 1.116 0 2.263 0.052 3.44 0.155 1.179 0.104 2.346 0.238 3.503 0.403 1.157 0.166 2.264 0.362 3.317 0.589 1.054 0.228 1.994 0.465 2.821 0.713V44.896zM280.885 31.628c0 5.167 2.087 7.75 6.262 7.75 0.951 0 1.839-0.124 2.666-0.372s1.529-0.537 2.108-0.868V23.382c-0.455-0.083-0.992-0.155-1.612-0.217 -0.62-0.062-1.344-0.093-2.17-0.093 -2.439 0-4.258 0.806-5.456 2.418C281.483 27.102 280.885 29.148 280.885 31.628z"/><path fill="#A60000" d="M304.568 32.93c0-2.893 0.443-5.425 1.333-7.595 0.889-2.17 2.056-3.978 3.503-5.425 1.446-1.446 3.109-2.542 4.991-3.286 1.88-0.744 3.812-1.116 5.797-1.116 4.629 0 8.287 1.417 10.974 4.247 2.687 2.832 4.03 6.996 4.03 12.493 0 0.538-0.021 1.127-0.062 1.767 -0.042 0.642-0.084 1.209-0.124 1.705h-20.956c0.206 1.902 1.095 3.41 2.666 4.526 1.57 1.116 3.678 1.674 6.323 1.674 1.694 0 3.358-0.155 4.991-0.465 1.633-0.31 2.966-0.691 3.999-1.147l1.24 7.502c-0.496 0.248-1.158 0.496-1.984 0.744 -0.827 0.248-1.746 0.465-2.759 0.651 -1.014 0.186-2.099 0.341-3.255 0.465 -1.157 0.124-2.315 0.186-3.472 0.186 -2.936 0-5.487-0.434-7.657-1.302 -2.17-0.868-3.968-2.056-5.395-3.565 -1.426-1.508-2.479-3.296-3.161-5.363C304.909 37.56 304.568 35.328 304.568 32.93zM326.269 29.396c-0.042-0.785-0.177-1.55-0.403-2.294 -0.228-0.744-0.579-1.404-1.054-1.984 -0.476-0.578-1.075-1.054-1.798-1.426 -0.724-0.372-1.623-0.558-2.697-0.558 -1.034 0-1.922 0.176-2.666 0.527 -0.744 0.352-1.364 0.817-1.86 1.395 -0.496 0.58-0.878 1.251-1.146 2.015 -0.27 0.765-0.465 1.541-0.589 2.325H326.269z"/></g></svg>
