<?xml version="1.0" encoding="utf-8"?>
<!-- Generator: Adobe Illustrator 17.1.0, SVG Export Plug-In . SVG Version: 6.00 Build 0)  -->
<!DOCTYPE svg PUBLIC "-//W3C//DTD SVG 1.1//EN" "http://www.w3.org/Graphics/SVG/1.1/DTD/svg11.dtd">
<svg version="1.1" id="Layer_1" xmlns="http://www.w3.org/2000/svg" xmlns:xlink="http://www.w3.org/1999/xlink" x="0px" y="0px"
	 viewBox="0 0 928.571 1000" enable-background="new 0 0 928.571 1000" xml:space="preserve">
<path d="M0,607.168V392.896c0-9.672,3.534-18.042,10.602-25.11s15.438-10.602,25.11-10.602h146.196L367.722,171.37
	c7.068-7.068,15.438-10.602,25.11-10.602c9.672,0,18.042,3.534,25.11,10.602c7.068,7.068,10.602,15.438,10.602,25.11v607.104
	c0,9.672-3.534,18.042-10.602,25.11c-7.068,7.068-15.438,10.602-25.11,10.602c-9.672,0-18.042-3.534-25.11-10.602L181.908,642.88
	H35.712c-9.672,0-18.042-3.534-25.11-10.602S0,616.84,0,607.168L0,607.168z"/>
<path d="M506.664,598.24c0-7.812,2.232-14.415,6.696-19.809s9.858-10.044,16.182-13.95s12.648-8.184,18.972-12.834
	c6.324-4.65,11.718-11.253,16.182-19.809c4.464-8.556,6.696-19.158,6.696-31.806s-2.232-23.25-6.696-31.806
	c-4.464-8.556-9.858-15.159-16.182-19.809c-6.324-4.65-12.648-8.928-18.972-12.834s-11.718-8.556-16.182-13.95
	c-4.464-5.394-6.696-11.997-6.696-19.809c0-10.044,3.534-18.507,10.602-25.389c7.068-6.882,15.438-10.323,25.11-10.323
	c5.58,0,10.23,0.93,13.95,2.79c26.04,10.044,46.965,27.342,62.775,51.894c15.81,24.552,23.715,50.964,23.715,79.236
	s-7.905,54.591-23.715,78.957c-15.81,24.366-36.735,41.757-62.775,52.173c-3.72,1.86-8.37,2.79-13.95,2.79
	c-9.672,0-18.042-3.441-25.11-10.323C510.198,616.747,506.664,608.284,506.664,598.24L506.664,598.24z"/>
<path d="M562.464,729.928c0-14.508,7.254-25.482,21.762-32.922c20.832-10.788,34.968-18.972,42.408-24.552
	c27.528-20.088,49.011-45.291,64.449-75.609s23.157-62.589,23.157-96.813s-7.719-66.495-23.157-96.813
	c-15.438-30.318-36.921-55.521-64.449-75.609c-7.44-5.58-21.576-13.764-42.408-24.552c-14.508-7.44-21.762-18.414-21.762-32.922
	c0-9.672,3.534-18.042,10.602-25.11c7.068-7.068,15.438-10.602,25.11-10.602c4.836,0,9.672,0.93,14.508,2.79
	c52.08,21.948,93.93,57.009,125.55,105.183s47.43,100.719,47.43,157.635c0,56.916-15.81,109.461-47.43,157.635
	c-31.62,48.174-73.47,83.235-125.55,105.183c-4.836,1.86-9.486,2.79-13.95,2.79c-10.044,0-18.6-3.534-25.668-10.602
	S562.464,739.6,562.464,729.928L562.464,729.928z"/>
<path d="M618.822,861.058c0-13.392,7.254-24.366,21.762-32.922c2.604-1.488,6.789-3.441,12.555-5.859
	c5.766-2.418,9.951-4.371,12.555-5.859c17.112-9.3,32.364-18.786,45.756-28.458c45.756-33.852,81.468-76.074,107.136-126.666
	c25.668-50.592,38.502-104.346,38.502-161.262c0-56.916-12.834-110.67-38.502-161.262c-25.668-50.592-61.38-92.814-107.136-126.666
	c-13.392-9.672-28.644-19.158-45.756-28.458c-2.604-1.488-6.789-3.441-12.555-5.859s-9.951-4.371-12.555-5.859
	c-14.508-8.556-21.762-19.53-21.762-32.922c0-9.672,3.534-18.042,10.602-25.11s15.438-10.602,25.11-10.602
	c4.836,0,9.672,0.93,14.508,2.79c78.492,33.852,141.36,86.583,188.604,158.193s70.866,150.195,70.866,235.755
	s-23.622,164.145-70.866,235.755S747.534,860.128,669.042,893.98c-4.836,1.86-9.672,2.79-14.508,2.79
	c-9.672,0-18.042-3.534-25.11-10.602S618.822,870.73,618.822,861.058z"/>
</svg>
