<svg xmlns="http://www.w3.org/2000/svg" style="display: none">
  <defs>
    <symbol viewBox="0 0 857.143 1000" id="i-pause"><path d="M0 892.864v-785.664q0 -14.508 10.602 -25.11t25.11 -10.602h285.696q14.508 0 25.11 10.602t10.602 25.11v785.664q0 14.508 -10.602 25.11t-25.11 10.602h-285.696q-14.508 0 -25.11 -10.602t-10.602 -25.11zm499.968 0v-785.664q0 -14.508 10.602 -25.11t25.11 -10.602h285.696q14.508 0 25.11 10.602t10.602 25.11v785.664q0 14.508 -10.602 25.11t-25.11 10.602h-285.696q-14.508 0 -25.11 -10.602t-10.602 -25.11z"/></symbol>
    <symbol viewBox="0 0 785.714 1000" id="i-play"><path d="M0 910.72v-821.376q0 -14.508 9.207 -20.088t22.041 1.674l741.024 411.804q12.834 7.254 12.834 17.298t-12.834 17.298l-741.024 411.804q-12.834 7.254 -22.041 1.674t-9.207 -20.088z"/></symbol>
    <symbol viewBox="0 0 857.143 1000" id="i-stop"><path d="M0 892.864v-785.664q0 -14.508 10.602 -25.11t25.11 -10.602h785.664q14.508 0 25.11 10.602t10.602 25.11v785.664q0 14.508 -10.602 25.11t-25.11 10.602h-785.664q-14.508 0 -25.11 -10.602t-10.602 -25.11z"/></symbol>
    <symbol viewBox="0 0 928.571 1000" id="i-thumbs-down"><path d="M0 607.168q0 14.508 10.602 25.11t25.11 10.602h160.704q14.508 0 25.11 -10.602t10.602 -25.11v-357.12q0 -14.508 -10.602 -25.11t-25.11 -10.602h-160.704q-14.508 0 -25.11 10.602t-10.602 25.11v357.12zm71.424 -285.696q0 -15.066 10.323 -25.389t25.389 -10.323q14.508 0 25.11 10.323t10.602 25.389q0 14.508 -10.602 25.11t-25.11 10.602q-15.066 0 -25.389 -10.602t-10.323 -25.11zm196.416 286.254v-357.678q0 -14.508 10.602 -24.831t25.11 -10.881q19.53 -.558 88.164 -24.552 42.966 -14.508 67.239 -22.041t67.797 -16.182 80.352 -8.649h71.982q74.214 1.116 109.926 43.524 32.364 38.502 27.342 100.998 21.762 20.646 30.132 52.452 9.486 34.038 0 65.286 25.668 34.038 23.994 76.446 0 17.856 -8.37 42.408 30.69 34.038 30.69 83.142 -.558 43.524 -32.085 75.33t-75.051 31.806h-154.566q2.232 7.812 4.464 13.392t6.138 12.276 5.58 10.044q10.044 20.646 15.066 31.806t10.602 32.643 5.58 42.687q0 13.392 -.279 21.762t-2.79 25.11 -6.696 27.9 -13.392 25.11 -22.32 22.599 -33.48 14.508 -46.035 5.859q-14.508 0 -25.11 -10.602 -11.16 -11.16 -18.972 -27.9t-10.881 -29.016 -6.975 -34.038q-5.022 -23.436 -7.533 -33.759t-9.765 -27.063 -17.298 -26.784q-18.414 -18.414 -56.358 -66.96 -27.342 -35.712 -56.358 -67.518t-42.408 -32.922q-13.95 -1.116 -23.994 -11.439t-10.044 -24.273z"/></symbol>
    <symbol viewBox="0 0 928.571 1000" id="i-thumbs-up"><path d="M0 821.44v-357.12q0 -14.508 10.602 -25.11t25.11 -10.602h160.704q14.508 0 25.11 10.602t10.602 25.11v357.12q0 14.508 -10.602 25.11t-25.11 10.602h-160.704q-14.508 0 -25.11 -10.602t-10.602 -25.11zm71.424 -71.424q0 15.066 10.323 25.389t25.389 10.323q14.508 0 25.11 -10.323t10.602 -25.389q0 -14.508 -10.602 -25.11t-25.11 -10.602q-15.066 0 -25.389 10.602t-10.323 25.11zm196.416 71.424v-357.678q0 -13.95 10.044 -24.273t23.994 -11.439q13.392 -1.116 42.408 -32.922t56.358 -67.518q37.944 -48.546 56.358 -66.96 10.044 -10.044 17.298 -26.784t9.765 -27.063 7.533 -33.759q3.906 -21.762 6.975 -34.038t10.881 -29.016 18.972 -27.9q10.602 -10.602 25.11 -10.602 25.668 0 46.035 5.859t33.48 14.508 22.32 22.599 13.392 25.11 6.696 27.9 2.79 25.11 .279 21.762q0 21.204 -5.301 42.408t-10.602 33.48 -15.345 31.248q-1.674 3.348 -5.58 10.044t-6.138 12.276 -4.464 13.392h154.566q43.524 0 75.33 31.806t31.806 75.33q0 47.988 -30.69 83.142 8.37 24.552 8.37 42.408 1.674 42.408 -23.994 76.446 9.486 31.248 0 65.286 -8.37 31.806 -30.132 52.452 5.022 62.496 -27.342 100.998 -35.712 42.408 -109.926 43.524h-71.982q-36.828 0 -80.352 -8.649t-67.797 -16.182 -67.239 -22.041q-68.634 -23.994 -88.164 -24.552 -14.508 -.558 -25.11 -10.881t-10.602 -24.831z"/></symbol>
    <symbol viewBox="0 0 1000 1000" id="i-skip"><path d="M0 910.72v-821.376q0 -14.508 7.254 -17.856t17.856 7.254l396.18 396.18q4.464 4.464 7.254 10.602v-396.18q0 -14.508 7.254 -17.856t17.856 7.254l396.18 396.18q4.464 4.464 7.254 10.602v-378.324q0 -14.508 10.602 -25.11t25.11 -10.602h71.424q14.508 0 25.11 10.602t10.602 25.11v785.664q0 14.508 -10.602 25.11t-25.11 10.602h-71.424q-14.508 0 -25.11 -10.602t-10.602 -25.11v-378.324q-2.79 5.58 -7.254 10.602l-396.18 396.18q-10.602 10.602 -17.856 7.254t-7.254 -17.856v-396.18q-2.79 5.58 -7.254 10.602l-396.18 396.18q-10.602 10.602 -17.856 7.254t-7.254 -17.856z"/></symbol>
    <symbol viewBox="0 0 642.857 1000" id="i-vol-low"><path d="M0 607.168v-214.272q0 -14.508 10.602 -25.11t25.11 -10.602h146.196l185.814 -185.814q10.602 -10.602 25.11 -10.602t25.11 10.602 10.602 25.11v607.104q0 14.508 -10.602 25.11t-25.11 10.602 -25.11 -10.602l-185.814 -185.814h-146.196q-14.508 0 -25.11 -10.602t-10.602 -25.11zm506.664 -8.928q0 -11.718 6.696 -19.809t16.182 -13.95 18.972 -12.834 16.182 -19.809 6.696 -31.806 -6.696 -31.806 -16.182 -19.809 -18.972 -12.834 -16.182 -13.95 -6.696 -19.809q0 -15.066 10.602 -25.389t25.11 -10.323q8.37 0 13.95 2.79 39.06 15.066 62.775 51.894t23.715 79.236 -23.715 78.957 -62.775 52.173q-5.58 2.79 -13.95 2.79 -14.508 0 -25.11 -10.323t-10.602 -25.389z"/></symbol>
    <symbol viewBox="0 0 428.571 1000" id="i-vol-off"><path d="M0 607.168v-214.272q0 -14.508 10.602 -25.11t25.11 -10.602h146.196l185.814 -185.814q10.602 -10.602 25.11 -10.602t25.11 10.602 10.602 25.11v607.104q0 14.508 -10.602 25.11t-25.11 10.602 -25.11 -10.602l-185.814 -185.814h-146.196q-14.508 0 -25.11 -10.602t-10.602 -25.11z"/></symbol>
    <symbol viewBox="0 0 928.571 1000" id="i-vol-high"><path d="M0 607.168v-214.272q0 -14.508 10.602 -25.11t25.11 -10.602h146.196l185.814 -185.814q10.602 -10.602 25.11 -10.602t25.11 10.602 10.602 25.11v607.104q0 14.508 -10.602 25.11t-25.11 10.602 -25.11 -10.602l-185.814 -185.814h-146.196q-14.508 0 -25.11 -10.602t-10.602 -25.11zm506.664 -8.928q0 -11.718 6.696 -19.809t16.182 -13.95 18.972 -12.834 16.182 -19.809 6.696 -31.806 -6.696 -31.806 -16.182 -19.809 -18.972 -12.834 -16.182 -13.95 -6.696 -19.809q0 -15.066 10.602 -25.389t25.11 -10.323q8.37 0 13.95 2.79 39.06 15.066 62.775 51.894t23.715 79.236 -23.715 78.957 -62.775 52.173q-5.58 2.79 -13.95 2.79 -14.508 0 -25.11 -10.323t-10.602 -25.389zm55.8 131.688q0 -21.762 21.762 -32.922 31.248 -16.182 42.408 -24.552 41.292 -30.132 64.449 -75.609t23.157 -96.813 -23.157 -96.813 -64.449 -75.609q-11.16 -8.37 -42.408 -24.552 -21.762 -11.16 -21.762 -32.922 0 -14.508 10.602 -25.11t25.11 -10.602q7.254 0 14.508 2.79 78.12 32.922 125.55 105.183t47.43 157.635 -47.43 157.635 -125.55 105.183q-7.254 2.79 -13.95 2.79 -15.066 0 -25.668 -10.602t-10.602 -25.11zm56.358 131.13q0 -20.088 21.762 -32.922 3.906 -2.232 12.555 -5.859t12.555 -5.859q25.668 -13.95 45.756 -28.458 68.634 -50.778 107.136 -126.666t38.502 -161.262 -38.502 -161.262 -107.136 -126.666q-20.088 -14.508 -45.756 -28.458 -3.906 -2.232 -12.555 -5.859t-12.555 -5.859q-21.762 -12.834 -21.762 -32.922 0 -14.508 10.602 -25.11t25.11 -10.602q7.254 0 14.508 2.79 117.738 50.778 188.604 158.193t70.866 235.755 -70.866 235.755 -188.604 158.193q-7.254 2.79 -14.508 2.79 -14.508 0 -25.11 -10.602t-10.602 -25.11z"/></symbol>
  </defs>
</svg>
