<svg xmlns="http://www.w3.org/2000/svg" style="display: none">
  <defs>
    <symbol viewBox="0 0 857.143 1000" id="i-pause"><path d="M0 892.864v-785.664q0 -14.508 10.602 -25.11t25.11 -10.602h285.696q14.508 0 25.11 10.602t10.602 25.11v785.664q0 14.508 -10.602 25.11t-25.11 10.602h-285.696q-14.508 0 -25.11 -10.602t-10.602 -25.11zm499.968 0v-785.664q0 -14.508 10.602 -25.11t25.11 -10.602h285.696q14.508 0 25.11 10.602t10.602 25.11v785.664q0 14.508 -10.602 25.11t-25.11 10.602h-285.696q-14.508 0 -25.11 -10.602t-10.602 -25.11z"/></symbol>
    <symbol viewBox="0 0 785.714 1000" id="i-play"><path d="M0 910.72v-821.376q0 -14.508 9.207 -20.088t22.041 1.674l741.024 411.804q12.834 7.254 12.834 17.298t-12.834 17.298l-741.024 411.804q-12.834 7.254 -22.041 1.674t-9.207 -20.088z"/></symbol>
    <symbol viewBox="0 0 857.143 1000" id="i-stop"><path d="M0 892.864v-785.664q0 -14.508 10.602 -25.11t25.11 -10.602h785.664q14.508 0 25.11 10.602t10.602 25.11v785.664q0 14.508 -10.602 25.11t-25.11 10.602h-785.664q-14.508 0 -25.11 -10.602t-10.602 -25.11z"/></symbol>
    <symbol viewBox="0 0 928.571 1000" id="i-thumbs-down"><path d="M0 607.168q0 14.508 10.602 25.11t25.11 10.602h160.704q14.508 0 25.11 -10.602t10.602 -25.11v-357.12q0 -14.508 -10.602 -25.11t-25.11 -10.602h-160.704q-14.508 0 -25.11 10.602t-10.602 25.11v357.12zm71.424 -285.696q0 -15.066 10.323 -25.389t25.389 -10.323q14.508 0 25.11 10.323t10.602 25.389q0 14.508 -10.602 25.11t-25.11 10.602q-15.066 0 -25.389 -10.602t-10.323 -25.11zm196.416 286.254v-357.678q0 -14.508 10.602 -24.831t25.11 -10.881q19.53 -.558 88.164 -24.552 42.966 -14.508 67.239 -22.041t67.797 -16.182 80.352 -8.649h71.982q74.214 1.116 109.926 43.524 32.364 38.502 27.342 100.998 21.762 20.646 30.132 52.452 9.486 34.038 0 65.286 25.668 34.038 23.994 76.446 0 17.856 -8.37 42.408 30.69 34.038 30.69 83.142 -.558 43.524 -32.085 75.33t-75.051 31.806h-154.566q2.232 7.812 4.464 13.392t6.138 12.276 5.58 10.044q10.044 20.646 15.066 31.806t10.602 32.643 5.58 42.687q0 13.392 -.279 21.762t-2.79 25.11 -6.696 27.9 -13.392 25.11 -22.32 22.599 -33.48 14.508 -46.035 5.859q-14.508 0 -25.11 -10.602 -11.16 -11.16 -18.972 -27.9t-10.881 -29.016 -6.975 -34.038q-5.022 -23.436 -7.533 -33.759t-9.765 -27.063 -17.298 -26.784q-18.414 -18.414 -56.358 -66.96 -27.342 -35.712 -56.358 -67.518t-42.408 -32.922q-13.95 -1.116 -23.994 -11.439t-10.044 -24.273z"/></symbol>
    <symbol viewBox="0 0 928.571 1000" id="i-thumbs-up"><path d="M0 821.44v-357.12q0 -14.508 10.602 -25.11t25.11 -10.602h160.704q14.508 0 25.11 10.602t10.602 25.11v357.12q0 14.508 -10.602 25.11t-25.11 10.602h-160.704q-14.508 0 -25.11 -10.602t-10.602 -25.11zm71.424 -71.424q0 15.066 10.323 25.389t25.389 10.323q14.508 0 25.11 -10.323t10.602 -25.389q0 -14.508 -10.602 -25.11t-25.11 -10.602q-15.066 0 -25.389 10.602t-10.323 25.11zm196.416 71.424v-357.678q0 -13.95 10.044 -24.273t23.994 -11.439q13.392 -1.116 42.408 -32.922t56.358 -67.518q37.944 -48.546 56.358 -66.96 10.044 -10.044 17.298 -26.784t9.765 -27.063 7.533 -33.759q3.906 -21.762 6.975 -34.038t10.881 -29.016 18.972 -27.9q10.602 -10.602 25.11 -10.602 25.668 0 46.035 5.859t33.48 14.508 22.32 22.599 13.392 25.11 6.696 27.9 2.79 25.11 .279 21.762q0 21.204 -5.301 42.408t-10.602 33.48 -15.345 31.248q-1.674 3.348 -5.58 10.044t-6.138 12.276 -4.464 13.392h154.566q43.524 0 75.33 31.806t31.806 75.33q0 47.988 -30.69 83.142 8.37 24.552 8.37 42.408 1.674 42.408 -23.994 76.446 9.486 31.248 0 65.286 -8.37 31.806 -30.132 52.452 5.022 62.496 -27.342 100.998 -35.712 42.408 -109.926 43.524h-71.982q-36.828 0 -80.352 -8.649t-67.797 -16.182 -67.239 -22.041q-68.634 -23.994 -88.164 -24.552 -14.508 -.558 -25.11 -10.881t-10.602 -24.831z"/></symbol>
    <symbol viewBox="0 0 1000 1000" id="i-skip"><path d="M0 910.72v-821.376q0 -14.508 7.254 -17.856t17.856 7.254l396.18 396.18q4.464 4.464 7.254 10.602v-396.18q0 -14.508 7.254 -17.856t17.856 7.254l396.18 396.18q4.464 4.464 7.254 10.602v-378.324q0 -14.508 10.602 -25.11t25.11 -10.602h71.424q14.508 0 25.11 10.602t10.602 25.11v785.664q0 14.508 -10.602 25.11t-25.11 10.602h-71.424q-14.508 0 -25.11 -10.602t-10.602 -25.11v-378.324q-2.79 5.58 -7.254 10.602l-396.18 396.18q-10.602 10.602 -17.856 7.254t-7.254 -17.856v-396.18q-2.79 5.58 -7.254 10.602l-396.18 396.18q-10.602 10.602 -17.856 7.254t-7.254 -17.856z"/></symbol>
    <symbol viewBox="0 0 928.571 1000" id="i-vol"><path id="i-vol-cone" d="M0,607.168V392.896c0-9.672,3.534-18.042,10.602-25.11s15.438-10.602,25.11-10.602h146.196L367.722,171.37c7.068-7.068,15.438-10.602,25.11-10.602c9.672,0,18.042,3.534,25.11,10.602c7.068,7.068,10.602,15.438,10.602,25.11v607.104c0,9.672-3.534,18.042-10.602,25.11c-7.068,7.068-15.438,10.602-25.11,10.602c-9.672,0-18.042-3.534-25.11-10.602L181.908,642.88H35.712c-9.672,0-18.042-3.534-25.11-10.602S0,616.84,0,607.168L0,607.168z"/><path id="i-vol-1" d="M506.664,598.24c0-7.812,2.232-14.415,6.696-19.809s9.858-10.044,16.182-13.95s12.648-8.184,18.972-12.834c6.324-4.65,11.718-11.253,16.182-19.809c4.464-8.556,6.696-19.158,6.696-31.806s-2.232-23.25-6.696-31.806c-4.464-8.556-9.858-15.159-16.182-19.809c-6.324-4.65-12.648-8.928-18.972-12.834s-11.718-8.556-16.182-13.95c-4.464-5.394-6.696-11.997-6.696-19.809c0-10.044,3.534-18.507,10.602-25.389c7.068-6.882,15.438-10.323,25.11-10.323c5.58,0,10.23,0.93,13.95,2.79c26.04,10.044,46.965,27.342,62.775,51.894c15.81,24.552,23.715,50.964,23.715,79.236s-7.905,54.591-23.715,78.957c-15.81,24.366-36.735,41.757-62.775,52.173c-3.72,1.86-8.37,2.79-13.95,2.79c-9.672,0-18.042-3.441-25.11-10.323C510.198,616.747,506.664,608.284,506.664,598.24L506.664,598.24z"/><path id="i-vol-2" d="M562.464,729.928c0-14.508,7.254-25.482,21.762-32.922c20.832-10.788,34.968-18.972,42.408-24.552c27.528-20.088,49.011-45.291,64.449-75.609s23.157-62.589,23.157-96.813s-7.719-66.495-23.157-96.813c-15.438-30.318-36.921-55.521-64.449-75.609c-7.44-5.58-21.576-13.764-42.408-24.552c-14.508-7.44-21.762-18.414-21.762-32.922c0-9.672,3.534-18.042,10.602-25.11c7.068-7.068,15.438-10.602,25.11-10.602c4.836,0,9.672,0.93,14.508,2.79c52.08,21.948,93.93,57.009,125.55,105.183s47.43,100.719,47.43,157.635c0,56.916-15.81,109.461-47.43,157.635c-31.62,48.174-73.47,83.235-125.55,105.183c-4.836,1.86-9.486,2.79-13.95,2.79c-10.044,0-18.6-3.534-25.668-10.602S562.464,739.6,562.464,729.928L562.464,729.928z"/><path id="i-vol-3" d="M618.822,861.058c0-13.392,7.254-24.366,21.762-32.922c2.604-1.488,6.789-3.441,12.555-5.859c5.766-2.418,9.951-4.371,12.555-5.859c17.112-9.3,32.364-18.786,45.756-28.458c45.756-33.852,81.468-76.074,107.136-126.666c25.668-50.592,38.502-104.346,38.502-161.262c0-56.916-12.834-110.67-38.502-161.262c-25.668-50.592-61.38-92.814-107.136-126.666c-13.392-9.672-28.644-19.158-45.756-28.458c-2.604-1.488-6.789-3.441-12.555-5.859s-9.951-4.371-12.555-5.859c-14.508-8.556-21.762-19.53-21.762-32.922c0-9.672,3.534-18.042,10.602-25.11s15.438-10.602,25.11-10.602c4.836,0,9.672,0.93,14.508,2.79c78.492,33.852,141.36,86.583,188.604,158.193s70.866,150.195,70.866,235.755s-23.622,164.145-70.866,235.755S747.534,860.128,669.042,893.98c-4.836,1.86-9.672,2.79-14.508,2.79c-9.672,0-18.042-3.534-25.11-10.602S618.822,870.73,618.822,861.058z"/></symbol>
    <symbol viewBox="0 0 96 96" id="i-spinner"><circle cx="48" cy="12" r="11"/><circle cx="48" cy="12" r="10" transform="rotate(-45, 48, 48)"/><circle cx="48" cy="12" r="9"  transform="rotate(-90, 48, 48)"/><circle cx="48" cy="12" r="8" transform="rotate(-135, 48, 48)"/><circle cx="48" cy="12" r="7" transform="rotate(-180, 48, 48)"/><circle cx="48" cy="12" r="6" transform="rotate(-225, 48, 48)"/><circle cx="48" cy="12" r="5" transform="rotate(-270, 48, 48)"/><circle cx="48" cy="12" r="4" transform="rotate(-315, 48, 48)"/></symbol>
  </defs>
</svg>
